<svg width="116" height="40" viewBox="0 0 116 40" fill="none" xmlns="http://www.w3.org/2000/svg">
<path d="M85.6777 0.610352H105.561V1.83088H99.7066V38.2248H101.695C104.825 38.2248 107.31 37.2632 109.151 35.3399C111.029 33.4166 112.925 30.4578 114.84 26.4633H116L114.951 39.4453H85.6777V38.2248H88.9364V1.83088H85.6777V0.610352Z" fill="white"/>
<path d="M71.9775 22.3024V18.197C71.9775 11.4286 71.6461 7.15673 70.9833 5.38141C70.2469 3.3472 69.1975 2.08969 67.8351 1.60888C67.0618 1.31299 66.1229 1.16505 65.0182 1.16505C63.9136 1.16505 62.9563 1.31299 62.1462 1.60888C61.3729 1.90476 60.7286 2.42256 60.2131 3.16227C59.6976 3.90199 59.2741 4.67869 58.9427 5.49237C58.6482 6.30606 58.4088 7.45261 58.2247 8.93204C58.0038 11.0772 57.8933 14.2395 57.8933 18.4189V22.4133C57.8933 26.9256 58.059 30.1433 58.3904 32.0666C58.7586 33.9528 59.2005 35.3028 59.716 36.1165C60.8574 37.9288 62.6249 38.8349 65.0182 38.8349C67.9271 38.8349 69.805 37.6144 70.6519 35.1734C71.5356 32.6953 71.9775 28.405 71.9775 22.3024ZM64.9078 40C58.7586 40 54.156 38.3356 51.0998 35.0069C48.0805 31.6412 46.5708 26.7961 46.5708 20.4716C46.5708 14.11 48.1909 9.11697 51.4312 5.49237C54.7083 1.83079 59.3294 0 65.2944 0C71.2595 0 75.7516 1.73833 78.771 5.21498C81.8271 8.65464 83.3552 13.5552 83.3552 19.9168C83.3552 26.2783 81.8087 31.2159 78.7158 34.7295C75.6596 38.2432 71.0569 40 64.9078 40Z" fill="white"/>
<path d="M26.8685 0.610352H44.8189V1.66444H41.7811V25.6312C41.7811 30.6242 40.6581 34.2673 38.412 36.5604C36.1659 38.8165 32.7967 39.9446 28.3045 39.9446C25.322 39.9446 22.9471 39.3713 21.1796 38.2248C19.449 37.0782 18.5837 35.4693 18.5837 33.3981C18.5837 31.8078 19.0256 30.5687 19.9093 29.6811C20.793 28.7564 21.9897 28.2941 23.4994 28.2941C25.0459 28.2941 26.1873 28.6825 26.9238 29.4592C27.697 30.2359 28.0836 31.179 28.0836 32.2886C28.0836 33.3612 27.8811 34.4522 27.4761 35.5618H25.322C24.9906 36.1166 24.8249 36.6529 24.8249 37.1707C24.8249 37.6515 25.0643 38.0768 25.543 38.4467C26.0585 38.7796 26.7212 38.946 27.5313 38.946C29.0042 38.946 29.9431 38.3727 30.3481 37.2262C30.79 36.0426 31.0109 33.5091 31.0109 29.6256V1.66444H26.8685V0.610352Z" fill="white"/>
<path d="M0 0.610352H16.8457V1.66444H13.808V38.3912H16.8457V39.4453H0V38.3912H3.03775V1.66444H0V0.610352Z" fill="white"/>
</svg>
