<svg width="24" height="24" viewBox="0 0 24 24" fill="none" xmlns="http://www.w3.org/2000/svg">
<path d="M21.52 11.615C21.3331 11.2361 21.0751 10.8966 20.76 10.615L13.76 3.615C13.3348 3.1859 12.8284 2.84559 12.2705 2.61384C11.7126 2.38209 11.1142 2.26351 10.51 2.265H5.59004C5.15452 2.26368 4.72303 2.34833 4.32028 2.51408C3.91754 2.67984 3.55147 2.92344 3.24305 3.23093C2.93463 3.53843 2.68992 3.90376 2.52295 4.306C2.35598 4.70824 2.27004 5.13948 2.27004 5.575V10.495C2.26833 11.1007 2.38677 11.7006 2.6185 12.2602C2.85022 12.8198 3.19064 13.3279 3.62004 13.755L10.62 20.755C10.9288 21.0641 11.2959 21.3089 11.7 21.475C12.101 21.646 12.533 21.735 12.97 21.735C13.8517 21.7246 14.6932 21.365 15.31 20.735L18.04 18.015L20.76 15.295C21.0692 14.9862 21.3139 14.6191 21.48 14.215C21.8135 13.4012 21.8135 12.4888 21.48 11.675L21.52 11.615ZM9.15004 11.895C8.58241 11.895 8.02752 11.7267 7.55555 11.4113C7.08358 11.096 6.71573 10.6477 6.4985 10.1233C6.28128 9.59888 6.22444 9.02182 6.33518 8.46509C6.44592 7.90836 6.71926 7.39698 7.12064 6.9956C7.52202 6.59423 8.0334 6.32089 8.59013 6.21015C9.14685 6.09941 9.72392 6.15624 10.2483 6.37346C10.7728 6.59069 11.221 6.95854 11.5364 7.43051C11.8517 7.90248 12.02 8.45737 12.02 9.025C12.0227 9.40405 11.9505 9.77988 11.8075 10.131C11.6646 10.482 11.4538 10.8014 11.1871 11.0709C10.9205 11.3403 10.6033 11.5544 10.2537 11.701C9.90416 11.8476 9.52909 11.9237 9.15004 11.925V11.895Z" fill="#F2B251"/>
</svg>
