<svg width="32" height="32" viewBox="0 0 32 32" fill="none" xmlns="http://www.w3.org/2000/svg">
<path d="M23.4372 5.90942L20.7705 4.50941C18.4292 3.28141 17.2585 2.66675 15.9998 2.66675C14.7412 2.66675 13.5705 3.28008 11.2292 4.50941L10.8012 4.73475L22.6985 11.5334L28.0532 8.85341C27.1918 7.87741 25.8025 7.14808 23.4372 5.90675M28.9972 10.6187L23.6665 13.2854V17.3334C23.6665 17.5986 23.5611 17.853 23.3736 18.0405C23.1861 18.2281 22.9317 18.3334 22.6665 18.3334C22.4013 18.3334 22.1469 18.2281 21.9594 18.0405C21.7719 17.853 21.6665 17.5986 21.6665 17.3334V14.2854L16.9998 16.6187V29.2054C17.9572 28.9667 19.0465 28.3961 20.7705 27.4907L23.4372 26.0907C26.3052 24.5854 27.7398 23.8334 28.5372 22.4801C29.3332 21.1281 29.3332 19.4441 29.3332 16.0801V15.9241C29.3332 13.4001 29.3332 11.8214 28.9972 10.6187ZM14.9998 29.2054V16.6187L3.0025 10.6187C2.6665 11.8214 2.6665 13.4001 2.6665 15.9214V16.0774C2.6665 19.4441 2.6665 21.1281 3.4625 22.4801C4.25984 23.8334 5.6945 24.5868 8.5625 26.0921L11.2292 27.4907C12.9532 28.3961 14.0425 28.9667 14.9998 29.2054ZM3.9465 8.85475L15.9998 14.8814L20.5478 12.6081L8.69984 5.83741L8.5625 5.90942C6.1985 7.14942 4.80784 7.87875 3.9465 8.85608" fill="white"/>
</svg>
