<svg width="16" height="16" viewBox="0 0 16 16" fill="none" xmlns="http://www.w3.org/2000/svg">
<path d="M9.00002 12.5C9.00002 12.5 11.678 12.822 13.208 11.292C14.738 9.76199 14.5 6.49999 14.5 6.49999C14.5 6.49999 11.39 6.05299 10 7.49999C9.56502 7.95299 9.00002 8.49999 9.00002 9.99999V12.5ZM9.00002 12.5C9.00002 12.5 5.50002 13 3.08802 10.588C0.676023 8.17599 1.50002 3.49999 1.50002 3.49999C1.50002 3.49999 5.15202 3.15199 7.55902 5.55899C8.52602 6.52599 9.00002 7.99999 9.00002 9.70599V12.5ZM11.5 9.99999L9.00002 12M5.00002 7.99999L8.78202 11.972" stroke="white"/>
</svg>
