<svg width="20" height="20" viewBox="0 0 20 20" fill="none" xmlns="http://www.w3.org/2000/svg">
<path fill-rule="evenodd" clip-rule="evenodd" d="M8.57184 3.25832C8.57184 2.78499 9.02017 2.29166 9.71684 2.29166C10.4135 2.29166 10.8618 2.78499 10.8618 3.25832C10.8618 3.51749 10.7685 3.74249 10.6168 3.90832C10.5139 4.01785 10.4083 4.12482 10.3002 4.22916L10.2335 4.29582C10.08 4.44447 9.93293 4.59961 9.79268 4.76082C9.57184 5.02082 9.33184 5.36332 9.24434 5.78582C8.7126 5.87269 8.20729 6.07834 7.76601 6.38749L1.85351 10.5475C1.08101 11.0908 0.881842 11.9658 1.16351 12.6992C1.44018 13.4208 2.15851 13.9583 3.08518 13.9583H5.00851C5.00018 14.2608 5.00018 14.6058 5.00018 15C5.00018 16.5717 5.00018 17.3567 5.48934 17.845C5.97517 18.3333 6.76184 18.3333 8.33351 18.3333H11.6668C13.2377 18.3333 14.0235 18.3333 14.5118 17.845C15.0002 17.3567 15.0002 16.5717 15.0002 15C15.0002 14.6058 15.0002 14.2608 14.9918 13.9583H16.9143C17.8518 13.9583 18.5727 13.4108 18.8443 12.6808C19.1193 11.9383 18.9052 11.0575 18.1135 10.5242L11.9193 6.34916C11.5133 6.07589 11.0555 5.88871 10.5743 5.79916C10.616 5.73193 10.673 5.65582 10.7452 5.57082C10.8502 5.44666 10.9735 5.32249 11.1118 5.18416L11.1743 5.12416C11.291 5.00749 11.4202 4.88082 11.5368 4.75332C11.906 4.35332 12.1118 3.82416 12.1118 3.25749C12.1118 1.97249 10.9752 1.04166 9.71684 1.04166C8.45851 1.04166 7.32184 1.97249 7.32184 3.25832C7.32184 3.42408 7.38769 3.58305 7.5049 3.70026C7.62211 3.81748 7.78108 3.88332 7.94684 3.88332C8.1126 3.88332 8.27157 3.81748 8.38878 3.70026C8.50599 3.58305 8.57184 3.42408 8.57184 3.25832ZM14.8393 12.7083H16.9143C17.3385 12.7083 17.586 12.4775 17.6727 12.2458C17.7535 12.0258 17.7118 11.7608 17.4143 11.5608L11.221 7.38582C10.8127 7.11495 10.3317 6.97458 9.84184 6.98332C9.35706 6.98625 8.88437 7.13491 8.48518 7.40999L2.57268 11.5692C2.28434 11.7717 2.24684 12.0342 2.33101 12.2517C2.41851 12.4808 2.66684 12.7083 3.08518 12.7083H5.16018C5.23268 12.4858 5.33684 12.3058 5.48851 12.155C5.97518 11.6667 6.76184 11.6667 8.33351 11.6667H11.6668C13.2377 11.6667 14.0235 11.6667 14.5118 12.155C14.6627 12.3058 14.7677 12.4858 14.8393 12.7083Z" fill="#C99547"/>
</svg>
