<svg width="24" height="24" viewBox="0 0 24 24" fill="none" xmlns="http://www.w3.org/2000/svg">
<g clip-path="url(#clip0_21_61)">
<mask id="mask0_21_61" style="mask-type:luminance" maskUnits="userSpaceOnUse" x="0" y="0" width="24" height="24">
<path d="M0 0H24V24H0V0Z" fill="white"/>
<path fill-rule="evenodd" clip-rule="evenodd" d="M11.9998 6.46154C10.531 6.46154 9.12223 7.04506 8.08357 8.08372C7.0449 9.12238 6.46139 10.5311 6.46139 12C6.46139 13.4689 7.0449 14.8776 8.08357 15.9163C9.12223 16.9549 10.531 17.5385 11.9998 17.5385C13.4687 17.5385 14.8775 16.9549 15.9161 15.9163C16.9548 14.8776 17.5383 13.4689 17.5383 12C17.5383 10.5311 16.9548 9.12238 15.9161 8.08372C14.8775 7.04506 13.4687 6.46154 11.9998 6.46154ZM4.61523 12C4.61523 10.0415 5.39325 8.16317 6.77814 6.77829C8.16302 5.39341 10.0413 4.61539 11.9998 4.61539C13.9584 4.61539 15.8367 5.39341 17.2216 6.77829C18.6064 8.16317 19.3845 10.0415 19.3845 12C19.3845 13.9585 18.6064 15.8368 17.2216 17.2217C15.8367 18.6066 13.9584 19.3846 11.9998 19.3846C10.0413 19.3846 8.16302 18.6066 6.77814 17.2217C5.39325 15.8368 4.61523 13.9585 4.61523 12Z" fill="black"/>
<path fill-rule="evenodd" clip-rule="evenodd" d="M17.2219 6.77817C17.3949 6.95127 17.4921 7.18602 17.4921 7.43078C17.4921 7.67555 17.3949 7.9103 17.2219 8.0834L8.08339 17.2219C7.9093 17.39 7.67613 17.483 7.4341 17.4809C7.19207 17.4788 6.96055 17.3818 6.78941 17.2106C6.61826 17.0395 6.52118 16.808 6.51908 16.5659C6.51697 16.3239 6.61002 16.0907 6.77816 15.9166L15.9166 6.77817C16.0897 6.60512 16.3245 6.5079 16.5692 6.5079C16.814 6.5079 17.0488 6.60512 17.2219 6.77817Z" fill="black"/>
</mask>
<g mask="url(#mask0_21_61)">
<path d="M12 24C18.6274 24 24 18.6274 24 12C24 5.37258 18.6274 0 12 0C5.37258 0 0 5.37258 0 12C0 18.6274 5.37258 24 12 24Z" fill="#F2B251"/>
</g>
</g>
<defs>
<clipPath id="clip0_21_61">
<rect width="24" height="24" fill="white"/>
</clipPath>
</defs>
</svg>
