<svg width="24" height="24" viewBox="0 0 24 24" fill="none" xmlns="http://www.w3.org/2000/svg">
<path d="M14.004 10.2444C13.9089 10.2438 13.8175 10.2807 13.7496 10.3473C13.6817 10.4138 13.6429 10.5045 13.6416 10.5996V13.254C13.6429 13.3493 13.6818 13.4402 13.75 13.5067C13.8182 13.5733 13.9099 13.6102 14.0052 13.6092H22.0008C22.0961 13.6102 22.1878 13.5733 22.256 13.5067C22.3242 13.4402 22.3631 13.3493 22.3644 13.254V10.5996C22.3631 10.5043 22.3242 10.4134 22.256 10.3469C22.1878 10.2803 22.0961 10.2434 22.0008 10.2444H14.004ZM18.9072 1.8012C20.0136 1.854 20.8092 2.0724 21.3132 2.5356C21.8112 2.994 22.0668 3.6576 22.1172 4.536V7.0524C22.1147 7.2667 22.0272 7.47124 21.874 7.62109C21.7207 7.77094 21.5143 7.85384 21.3 7.8516C21.1938 7.85287 21.0884 7.8332 20.9897 7.79373C20.8911 7.75425 20.8013 7.69573 20.7253 7.62152C20.6493 7.5473 20.5886 7.45885 20.5468 7.3612C20.505 7.26355 20.4829 7.15862 20.4816 7.0524L20.4828 4.5816C20.4564 4.1256 20.3472 3.8424 20.1912 3.6984C20.04 3.5592 19.5792 3.4344 18.8676 3.3984H3.1764C2.532 3.4224 2.1132 3.5448 1.9104 3.7188C1.7544 3.852 1.6368 4.2192 1.6356 4.854L1.632 18.978C1.692 19.5948 1.8276 20.0064 2.0016 20.2116C2.1336 20.3676 2.5428 20.5236 3.1452 20.6004H18.8844C19.6212 20.6148 20.0556 20.5044 20.202 20.3568C20.364 20.1924 20.4816 19.7604 20.4816 19.0536V16.5996C20.4816 16.1592 20.8476 15.8004 21.3 15.8004C21.7512 15.8004 22.1172 16.1592 22.1172 16.5996V19.0536C22.1172 20.1336 21.8964 20.9412 21.3792 21.4656C20.8464 22.0056 19.9992 22.2216 18.8676 22.1976L3.048 22.194C1.9716 22.0692 1.2 21.774 0.7404 21.2304C0.324 20.7384 0.0924 20.0364 0 19.0548V4.8528C0.0024 3.8016 0.2544 3.0108 0.8328 2.5164C1.3632 2.0604 2.1288 1.8384 3.1452 1.8L18.9072 1.8012ZM22.0008 8.646C23.1048 8.646 24 9.5208 24 10.5996V13.254C24 14.3328 23.1048 15.2076 22.0008 15.2076H14.0052C12.9012 15.2076 12.006 14.3316 12.006 13.254V10.5996C12.006 9.5208 12.9012 8.646 14.0052 8.646H22.0008ZM16.0044 10.974C15.4524 10.974 15.0048 11.406 15.0048 11.9376C15.0048 12.4692 15.4524 12.9012 16.0044 12.9012C16.5564 12.9012 17.004 12.4692 17.004 11.9376C17.004 11.406 16.5564 10.9728 16.0044 10.9728" fill="#C99547"/>
</svg>
