<svg width="20" height="20" viewBox="0 0 20 20" fill="none" xmlns="http://www.w3.org/2000/svg">
<path d="M10 1.64062C8.67656 1.64062 7.5 1.25 7.5 1.25V1.32812C7.5 1.99117 7.76339 2.62705 8.23223 3.09589C8.70107 3.56473 9.33696 3.82812 10 3.82812C10.663 3.82812 11.2989 3.56473 11.7678 3.09589C12.2366 2.62705 12.5 1.99117 12.5 1.32812V1.25C12.5 1.25 11.3234 1.64062 10 1.64062Z" fill="#453421"/>
<path d="M13.75 1.71875C13.5355 3.58437 11.9223 5.03906 10 5.03906C8.07773 5.03906 6.46445 3.58437 6.25 1.71875L0.625 3.67188L1.32813 8.125L3.73867 8.41484C4.01523 8.45 4.01602 8.45 4.01602 8.73477L3.75 18.75H16.25L15.984 8.73477C15.9758 8.46133 15.9758 8.46133 16.2613 8.41484L18.6719 8.125L19.375 3.67188L13.75 1.71875Z" fill="#453421"/>
</svg>
