<svg width="24" height="24" viewBox="0 0 24 24" fill="none" xmlns="http://www.w3.org/2000/svg">
<path d="M4 9H17L15.4 10.2C15.2949 10.2788 15.2064 10.3775 15.1395 10.4905C15.0726 10.6035 15.0286 10.7286 15.0101 10.8586C14.9915 10.9886 14.9987 11.121 15.0313 11.2482C15.0639 11.3754 15.1212 11.4949 15.2 11.6C15.2931 11.7242 15.4139 11.825 15.5528 11.8944C15.6916 11.9639 15.8448 12 16 12C16.2164 12 16.4269 11.9298 16.6 11.8L20.6 8.8C20.7223 8.70667 20.8214 8.58639 20.8897 8.4485C20.9579 8.31061 20.9934 8.15884 20.9934 8.005C20.9934 7.85115 20.9579 7.69938 20.8897 7.5615C20.8214 7.42361 20.7223 7.30332 20.6 7.21L16.74 4.21C16.5305 4.04689 16.2647 3.97369 16.0013 4.00651C15.7378 4.03933 15.4981 4.17548 15.335 4.385C15.1719 4.59452 15.0987 4.86025 15.1315 5.12374C15.1643 5.38723 15.3005 5.62689 15.51 5.79L17.08 7H4C3.73478 7 3.48043 7.10536 3.29289 7.29289C3.10536 7.48043 3 7.73478 3 8C3 8.26521 3.10536 8.51957 3.29289 8.7071C3.48043 8.89464 3.73478 9 4 9ZM20 16H7L8.6 14.8C8.81217 14.6409 8.95244 14.404 8.98995 14.1414C9.02746 13.8789 8.95913 13.6122 8.8 13.4C8.64087 13.1878 8.40397 13.0476 8.14142 13.01C7.87887 12.9725 7.61217 13.0409 7.4 13.2L3.4 16.2C3.27769 16.2933 3.17857 16.4136 3.11034 16.5515C3.04211 16.6894 3.00661 16.8412 3.00661 16.995C3.00661 17.1488 3.04211 17.3006 3.11034 17.4385C3.17857 17.5764 3.27769 17.6967 3.4 17.79L7.26 20.79C7.43455 20.9255 7.64905 20.9993 7.87 21C8.02272 20.9996 8.17332 20.9643 8.31026 20.8967C8.4472 20.8291 8.56684 20.731 8.66 20.61C8.82239 20.4015 8.89567 20.1373 8.86381 19.8749C8.83196 19.6126 8.69757 19.3735 8.49 19.21L6.92 18H20C20.2652 18 20.5196 17.8946 20.7071 17.7071C20.8946 17.5196 21 17.2652 21 17C21 16.7348 20.8946 16.4804 20.7071 16.2929C20.5196 16.1054 20.2652 16 20 16Z" fill="#C99547"/>
</svg>
