<svg width="20" height="20" viewBox="0 0 20 20" fill="none" xmlns="http://www.w3.org/2000/svg">
<g clip-path="url(#clip0_43_1556)">
<path fill-rule="evenodd" clip-rule="evenodd" d="M10 0.874229L10.3857 0.274229C10.2706 0.200386 10.1367 0.161133 10 0.161133C9.86325 0.161133 9.72938 0.200386 9.61429 0.274229L10 0.874229ZM10 0.874229L9.61429 0.274229H9.61143L9.60857 0.277086L9.59714 0.284229L9.56286 0.307086L9.43857 0.392801C8.82253 0.838682 8.25639 1.34974 7.75 1.91709C6.83571 2.94709 5.85429 4.49566 5.85429 6.41137C5.85429 7.41852 6.32286 8.35566 7.11 9.02709C7.89286 9.69709 8.93286 10.0571 10 10.0571C11.0671 10.0571 12.1071 9.69709 12.89 9.02852C13.6771 8.35566 14.1471 7.41852 14.1471 6.41137C14.1471 4.49566 13.1629 2.94709 12.25 1.91852C11.7095 1.3136 11.1013 0.772897 10.4371 0.307086L10.4029 0.285658L10.3914 0.277086L10.3886 0.274229H10.3857L10 0.874229ZM8.57143 19.8399C8.57143 16.9599 8.57143 14.3028 7.50143 11.9685C7.39753 11.7544 7.23433 11.5746 7.03123 11.4505C6.82813 11.3264 6.59367 11.2632 6.35571 11.2685C5.99603 11.2689 5.6512 11.412 5.39699 11.6665C5.14279 11.921 5 12.266 5 12.6257V14.3657C4.99983 14.4722 4.96949 14.5766 4.91248 14.6666C4.85548 14.7566 4.77414 14.8287 4.67789 14.8744C4.58164 14.9202 4.4744 14.9377 4.36859 14.925C4.26278 14.9124 4.16273 14.87 4.08 14.8028C3.82038 14.5913 3.61108 14.3246 3.46728 14.0222C3.32347 13.7198 3.24876 13.3891 3.24857 13.0542L3.24857 7.8928C3.24857 7.46201 3.07744 7.04887 2.77283 6.74426C2.46822 6.43965 2.05507 6.26852 1.62429 6.26852C1.1935 6.26852 0.780355 6.43965 0.475742 6.74426C0.17113 7.04887 0 7.46201 0 7.8928L0 14.6414C0 15.3771 0.251429 16.0928 0.71 16.6685L3.24429 19.8399H8.57143ZM12.4986 11.9685C11.4286 14.3028 11.4286 16.9599 11.4286 19.8399H16.7571L19.29 16.6685C19.7486 16.0928 20 15.3785 20 14.6399V7.89423C20 7.46344 19.8289 7.0503 19.5243 6.74569C19.2196 6.44107 18.8065 6.26994 18.3757 6.26994C17.9449 6.26994 17.5318 6.44107 17.2272 6.74569C16.9226 7.0503 16.7514 7.46344 16.7514 7.89423V13.0557C16.7514 13.7342 16.4457 14.3757 15.92 14.8042C15.8373 14.8714 15.7372 14.9138 15.6314 14.9265C15.5256 14.9391 15.4184 14.9216 15.3221 14.8759C15.2259 14.8301 15.1445 14.7581 15.0875 14.668C15.0305 14.578 15.0002 14.4737 15 14.3671L15 12.6242C15 12.2643 14.857 11.9191 14.6025 11.6646C14.348 11.4101 14.0028 11.2671 13.6429 11.2671C13.4051 11.2621 13.171 11.3254 12.9682 11.4495C12.7653 11.5735 12.6024 11.7532 12.4986 11.9671" fill="#C99547"/>
</g>
<defs>
<clipPath id="clip0_43_1556">
<rect width="20" height="20" fill="white"/>
</clipPath>
</defs>
</svg>
