<svg width="20" height="20" viewBox="0 0 20 20" fill="none" xmlns="http://www.w3.org/2000/svg">
<path d="M10.6957 2.63427C10.7417 2.59868 10.7829 2.55721 10.8182 2.51093H12.9532L12.9823 2.5101C13.1336 2.50184 13.2852 2.50184 13.4365 2.5101H13.4682C13.9427 2.50854 14.4114 2.61363 14.8398 2.8176C15.6227 3.12496 16.3 3.65227 16.7898 4.33593C17.1609 4.85354 17.4134 5.44657 17.5292 6.07284C17.645 6.6991 17.6213 7.34319 17.4598 7.95926L14.7257 5.26177C14.6087 5.14635 14.4509 5.08169 14.2865 5.08177H10.3073C10.1797 5.08696 10.0566 5.13117 9.95485 5.20843L8.38485 6.39843C8.21437 6.52796 7.99946 6.58456 7.7873 6.55581C7.57514 6.52706 7.38305 6.41532 7.25318 6.2451C7.18911 6.16213 7.14215 6.06727 7.11503 5.96601C7.08791 5.86476 7.08118 5.75912 7.09521 5.65524C7.10924 5.55136 7.14376 5.4513 7.19677 5.36086C7.24978 5.27043 7.32023 5.19142 7.40401 5.12843L10.6957 2.63427ZM6.58235 11.8626L6.57068 11.8734L5.75901 12.6801L5.74818 12.6901C5.60604 12.8253 5.41687 12.8998 5.22074 12.8979C5.0246 12.8961 4.83689 12.8179 4.69735 12.6801C4.62743 12.6111 4.57191 12.5289 4.53402 12.4383C4.49613 12.3477 4.47661 12.2504 4.47661 12.1522C4.47661 12.054 4.49613 11.9567 4.53402 11.8661C4.57191 11.7755 4.62743 11.6933 4.69735 11.6243L5.50901 10.8176C5.65038 10.6776 5.8413 10.5991 6.04026 10.5991C6.23922 10.5991 6.43014 10.6776 6.57151 10.8176C6.71087 10.9551 6.79022 11.1421 6.79224 11.3379C6.79427 11.5336 6.71882 11.7222 6.58235 11.8626ZM6.33985 13.2776C6.20337 13.418 6.12792 13.6066 6.12995 13.8023C6.13198 13.9981 6.21132 14.1851 6.35068 14.3226C6.64401 14.6143 7.11985 14.6143 7.41318 14.3226L8.22485 13.5159C8.30353 13.4379 8.36377 13.3433 8.40116 13.239C8.43856 13.1347 8.45216 13.0233 8.44098 12.9131C8.4298 12.8028 8.39411 12.6965 8.33653 12.6018C8.27894 12.5072 8.20093 12.4266 8.10818 12.3659C7.9658 12.2722 7.79592 12.2295 7.62615 12.2446C7.45639 12.2598 7.29675 12.3319 7.17318 12.4493L7.16235 12.4609L6.35068 13.2668L6.33985 13.2776ZM4.58318 9.50593C4.6531 9.57493 4.70861 9.65712 4.74651 9.74775C4.7844 9.83837 4.80391 9.93562 4.80391 10.0338C4.80391 10.1321 4.7844 10.2293 4.74651 10.32C4.70861 10.4106 4.6531 10.4928 4.58318 10.5618L3.77151 11.3684C3.63014 11.5084 3.43922 11.587 3.24026 11.587C3.0413 11.587 2.85038 11.5084 2.70901 11.3684C2.63909 11.2994 2.58358 11.2172 2.54569 11.1266C2.50779 11.036 2.48828 10.9387 2.48828 10.8405C2.48828 10.7423 2.50779 10.645 2.54569 10.5544C2.58358 10.4638 2.63909 10.3816 2.70901 10.3126L3.52068 9.50593C3.66205 9.36593 3.85297 9.2874 4.05193 9.2874C4.25089 9.2874 4.44181 9.36593 4.58318 9.50593ZM9.87735 14.1034C9.94726 14.1724 10.0028 14.2546 10.0407 14.3452C10.0786 14.4359 10.0981 14.5331 10.0981 14.6313C10.0981 14.7296 10.0786 14.8268 10.0407 14.9175C10.0028 15.0081 9.94726 15.0903 9.87735 15.1593L9.06568 15.9659C8.92431 16.1059 8.73339 16.1845 8.53443 16.1845C8.33547 16.1845 8.14455 16.1059 8.00318 15.9659C7.89227 15.8563 7.81872 15.7146 7.79299 15.5608C7.76726 15.407 7.79065 15.249 7.85985 15.1093L7.86068 15.1076C7.8971 15.0344 7.94524 14.9677 8.00318 14.9101L8.81485 14.1034C8.95622 13.9634 9.14714 13.8849 9.3461 13.8849C9.54506 13.8849 9.73597 13.9634 9.87735 14.1034ZM4.45318 4.0251C5.00653 3.47543 5.6775 3.05863 6.41546 2.80615C7.15342 2.55367 7.93909 2.4721 8.71318 2.5676L6.64985 4.13177C6.43474 4.29422 6.25394 4.49767 6.11787 4.73037C5.9818 4.96306 5.89316 5.2204 5.85705 5.48753C5.82095 5.75466 5.8381 6.02629 5.90752 6.28676C5.97694 6.54723 6.09725 6.79137 6.26151 7.0051C6.59272 7.43682 7.08124 7.72003 7.62047 7.79294C8.1597 7.86584 8.70588 7.72253 9.13985 7.39427L10.5432 6.33177H14.0307L16.9532 9.2151L16.9832 9.24843L17.9415 10.2068C18.1571 10.4253 18.2806 10.7183 18.2867 11.0252C18.2927 11.3322 18.1808 11.6297 17.974 11.8566C17.7672 12.0835 17.4812 12.2225 17.175 12.2448C16.8688 12.2672 16.5657 12.1712 16.3282 11.9768L16.2482 11.8968L16.1982 11.8534L15.2873 10.9434C15.2489 10.9036 15.2029 10.8719 15.1521 10.8501C15.1013 10.8282 15.0466 10.8167 14.9913 10.8162C14.9359 10.8158 14.8811 10.8263 14.8299 10.8473C14.7787 10.8682 14.7321 10.8991 14.693 10.9383C14.6539 10.9774 14.623 11.0239 14.602 11.0751C14.5811 11.1263 14.5705 11.1812 14.571 11.2365C14.5715 11.2918 14.583 11.3465 14.6048 11.3974C14.6266 11.4482 14.6584 11.4942 14.6982 11.5326L15.6565 12.4909C15.6915 12.5254 15.7271 12.5584 15.7632 12.5901L15.7998 12.6268C15.8801 12.7053 15.944 12.799 15.9878 12.9024C16.0316 13.0057 16.0544 13.1168 16.0551 13.2291C16.0557 13.3414 16.034 13.4526 15.9913 13.5565C15.9486 13.6603 15.8857 13.7547 15.8063 13.8341C15.727 13.9135 15.6326 13.9764 15.5287 14.0191C15.4249 14.0617 15.3136 14.0834 15.2013 14.0828C15.089 14.0822 14.978 14.0593 14.8746 14.0155C14.7712 13.9717 14.6775 13.9078 14.599 13.8276L14.4573 13.6868C14.3986 13.6282 14.3236 13.5884 14.2422 13.5727C14.1607 13.5569 14.0763 13.5659 14 13.5984C13.9236 13.6309 13.8587 13.6855 13.8135 13.7551C13.7684 13.8247 13.745 13.9063 13.7465 13.9893C13.7453 14.0456 13.7555 14.1016 13.7766 14.1539C13.7976 14.2062 13.8291 14.2537 13.869 14.2934L14.0548 14.4793C14.1314 14.5514 14.1928 14.6381 14.2352 14.7344C14.2776 14.8306 14.3003 14.9344 14.3019 15.0396C14.3035 15.1448 14.2839 15.2492 14.2444 15.3467C14.2049 15.4441 14.1462 15.5327 14.0718 15.6071C13.9974 15.6814 13.9089 15.7401 13.8114 15.7797C13.7139 15.8192 13.6095 15.8387 13.5043 15.8371C13.3991 15.8356 13.2954 15.8129 13.1991 15.7704C13.1029 15.728 13.0161 15.6667 12.944 15.5901H12.9432L12.9332 15.5793L12.7582 15.4043C12.7197 15.3653 12.6738 15.3343 12.6232 15.3132C12.5727 15.2921 12.5184 15.2812 12.4636 15.2812C12.4088 15.2812 12.3545 15.2921 12.304 15.3132C12.2534 15.3343 12.2075 15.3653 12.169 15.4043C12.0909 15.4824 12.047 15.5884 12.047 15.6988C12.047 15.8093 12.0909 15.9153 12.169 15.9934L12.3507 16.1759C12.4255 16.2498 12.485 16.3377 12.5258 16.4345C12.5667 16.5314 12.588 16.6354 12.5887 16.7405C12.5893 16.8456 12.5693 16.9499 12.5297 17.0472C12.49 17.1446 12.4316 17.2332 12.3578 17.308C12.2839 17.3828 12.196 17.4423 12.0991 17.4832C12.0023 17.524 11.8983 17.5454 11.7932 17.546C11.6881 17.5467 11.5838 17.5266 11.4865 17.487C11.3891 17.4474 11.3005 17.389 11.2257 17.3151L10.0332 16.1818L10.4707 15.7468C10.618 15.6008 10.735 15.4271 10.8149 15.2356C10.8947 15.0442 10.9358 14.8388 10.9358 14.6313C10.9358 14.4239 10.8947 14.2185 10.8149 14.0271C10.735 13.8356 10.618 13.6619 10.4707 13.5159C10.315 13.3608 10.1287 13.2398 9.92368 13.1606C9.71866 13.0814 9.49939 13.0458 9.27985 13.0559C9.28956 12.8373 9.25335 12.619 9.17355 12.4152C9.09375 12.2114 8.97212 12.0265 8.81651 11.8726C8.66091 11.7176 8.47476 11.5966 8.2699 11.5174C8.06503 11.4382 7.84592 11.4025 7.62651 11.4126C7.63611 11.1941 7.59984 10.976 7.52004 10.7723C7.44024 10.5686 7.31868 10.3839 7.16318 10.2301C6.96523 10.0334 6.71907 9.89228 6.44937 9.82076C6.17966 9.74923 5.89589 9.74987 5.62651 9.8226C5.58021 9.47969 5.42168 9.16176 5.17568 8.91843C4.90153 8.6467 4.53814 8.4836 4.15289 8.45939C3.76765 8.43518 3.3867 8.55149 3.08068 8.78677C2.88419 7.94191 2.90716 7.06083 3.1474 6.22736C3.38764 5.39389 3.83715 4.63575 4.45318 4.0251Z" fill="#C99547"/>
</svg>
