<svg width="46" height="44" viewBox="0 0 46 44" fill="none" xmlns="http://www.w3.org/2000/svg">
<g filter="url(#filter0_d_40_1436)">
<path d="M19.3413 3L19.5093 3.00684C19.6207 3.01632 19.7311 3.03565 19.8394 3.06348L19.9995 3.11133L20.106 3.14844L20.1069 3.14941C20.1332 3.15817 20.1664 3.16931 20.2065 3.18164C20.337 3.22171 20.5371 3.2775 20.7974 3.33398C21.3189 3.44716 22.0777 3.5625 23.0005 3.5625C24.8525 3.56243 26.0309 3.09856 25.9575 3.12793L25.9634 3.125C26.1738 3.04238 26.3984 3.00022 26.6245 3H26.6255C27.0329 3.00013 27.3694 3.18935 27.5854 3.39844C27.7991 3.60522 28.0439 3.9823 27.9946 4.47461V4.47656C27.738 6.98943 25.5918 8.99978 23.0005 9C20.4125 9 18.2664 6.98463 18.0054 4.47852L18.0034 4.45508L18.0015 4.43066C17.9915 4.25271 18.0167 4.07443 18.0757 3.90625L18.1265 3.78223C18.1827 3.66155 18.257 3.54969 18.3462 3.4502C18.4652 3.31748 18.6092 3.20978 18.77 3.13281C18.9309 3.05581 19.1056 3.01042 19.2837 3.00098L19.3101 3H19.3413Z" fill="#453421" stroke="white" stroke-width="2"/>
<path d="M16.9482 3.7793L17.0859 3.7998C17.2219 3.82741 17.3526 3.87737 17.4727 3.94824C17.5929 4.01924 17.7001 4.10986 17.79 4.21582L17.874 4.32617L17.9453 4.44629C18.0068 4.56416 18.0478 4.69149 18.0693 4.82324H18.0713C18.2662 5.99033 18.8685 7.05071 19.7715 7.81543C20.6745 8.58012 21.8196 9 23.0029 9C24.1862 8.99995 25.3314 8.58018 26.2344 7.81543C27.1373 7.0507 27.7397 5.99033 27.9346 4.82324C27.9637 4.64608 28.0305 4.47717 28.1309 4.32812C28.2332 4.17615 28.3683 4.04831 28.5254 3.9541L28.6465 3.89062C28.7707 3.83359 28.9034 3.79626 29.04 3.78223L29.1768 3.77637C29.2681 3.77702 29.3592 3.78713 29.4482 3.80762L29.5801 3.8457L29.5811 3.84668L37.6611 6.6748C38.1135 6.83315 38.4941 7.14921 38.7334 7.56445C38.9726 7.97964 39.0546 8.46685 38.9648 8.9375L37.9258 14.4355V14.4375C37.8458 14.8567 37.6334 15.2392 37.3203 15.5293C37.0072 15.8194 36.6097 16.0019 36.1855 16.0498L33.5879 16.3428L34.0322 30.9385L34.0312 31.083C34.0173 31.421 33.918 31.7507 33.7412 32.041C33.5392 32.3726 33.245 32.6384 32.8945 32.8057L32.8848 32.8105L32.876 32.8145C32.6009 32.9387 32.3018 33.001 32 32.999V33H14V32.999C13.6984 33.0009 13.4 32.9386 13.125 32.8145L13.1152 32.8105L13.1055 32.8057C12.7551 32.6384 12.4607 32.3726 12.2588 32.041C12.057 31.7095 11.9557 31.3264 11.9678 30.9385L12.4121 16.3428L9.81445 16.0498C9.39046 16.0018 8.99267 15.8193 8.67969 15.5293C8.36678 15.2392 8.15518 14.8566 8.0752 14.4375L8.07422 14.4355L7.03516 8.9375L7.00977 8.76074C6.96851 8.3463 7.05816 7.92789 7.26758 7.56445C7.50682 7.14927 7.88663 6.83318 8.33887 6.6748L16.4014 3.85352C16.4057 3.85191 16.4107 3.85019 16.415 3.84863L16.4199 3.84668V3.84766C16.5456 3.80309 16.6768 3.77736 16.8096 3.77441L16.9482 3.7793Z" fill="#453421" stroke="white" stroke-width="2"/>
</g>
<defs>
<filter id="filter0_d_40_1436" x="0" y="0" width="46.0005" height="44.0002" filterUnits="userSpaceOnUse" color-interpolation-filters="sRGB">
<feFlood flood-opacity="0" result="BackgroundImageFix"/>
<feColorMatrix in="SourceAlpha" type="matrix" values="0 0 0 0 0 0 0 0 0 0 0 0 0 0 0 0 0 0 127 0" result="hardAlpha"/>
<feOffset dy="4"/>
<feGaussianBlur stdDeviation="3"/>
<feComposite in2="hardAlpha" operator="out"/>
<feColorMatrix type="matrix" values="0 0 0 0 0.2 0 0 0 0 0.2 0 0 0 0 0.2 0 0 0 0.1 0"/>
<feBlend mode="normal" in2="BackgroundImageFix" result="effect1_dropShadow_40_1436"/>
<feBlend mode="normal" in="SourceGraphic" in2="effect1_dropShadow_40_1436" result="shape"/>
</filter>
</defs>
</svg>
