<svg width="32" height="32" viewBox="0 0 32 32" fill="none" xmlns="http://www.w3.org/2000/svg">
<path fill-rule="evenodd" clip-rule="evenodd" d="M13.3333 21.3333C13.687 21.3333 14.0261 21.4738 14.2761 21.7239C14.5262 21.9739 14.6667 22.313 14.6667 22.6667V24.2293C14.6661 25.2897 14.2445 26.3064 13.4947 27.056L12.9427 27.6093C12.6912 27.8522 12.3544 27.9866 12.0048 27.9836C11.6552 27.9805 11.3208 27.8403 11.0736 27.5931C10.8264 27.3459 10.6861 27.0115 10.6831 26.6619C10.6801 26.3123 10.8145 25.9755 11.0573 25.724L11.6093 25.172C11.8594 24.922 11.9999 24.5829 12 24.2293V22.6667C12 22.313 12.1405 21.9739 12.3905 21.7239C12.6406 21.4738 12.9797 21.3333 13.3333 21.3333ZM18.6667 21.3333C18.9932 21.3334 19.3085 21.4533 19.5525 21.6703C19.7965 21.8873 19.9525 22.1863 19.9907 22.5107L20 22.6667V24.2293C20 24.5224 20.0965 24.8073 20.2747 25.04L20.3907 25.172L20.9427 25.724C21.1818 25.9639 21.3206 26.2859 21.331 26.6245C21.3413 26.9631 21.2224 27.293 20.9983 27.547C20.7743 27.8011 20.4619 27.9604 20.1247 27.9925C19.7875 28.0247 19.4507 27.9272 19.1827 27.72L19.0573 27.6093L18.5053 27.0573C17.8199 26.3718 17.4067 25.4607 17.3427 24.4933L17.3333 24.2293V22.6667C17.3333 22.313 17.4738 21.9739 17.7239 21.7239C17.9739 21.4738 18.313 21.3333 18.6667 21.3333ZM8 21.3333C8.32658 21.3334 8.64178 21.4533 8.88583 21.6703C9.12988 21.8873 9.28579 22.1863 9.324 22.5107L9.33333 22.6667V23.484C9.33313 24.0071 9.17905 24.5187 8.89029 24.9549C8.60153 25.3911 8.19083 25.7328 7.70933 25.9373L7.50933 26.0133L5.75467 26.5987C5.43227 26.7049 5.08149 26.6842 4.77385 26.5407C4.46621 26.3972 4.22487 26.1418 4.09904 25.8266C3.97321 25.5113 3.97236 25.1599 4.09666 24.8441C4.22096 24.5282 4.46106 24.2716 4.768 24.1267L4.912 24.068L6.66667 23.484V22.6667C6.66667 22.313 6.80714 21.9739 7.05719 21.7239C7.30724 21.4738 7.64638 21.3333 8 21.3333ZM24 21.3333C24.3266 21.3334 24.6418 21.4533 24.8858 21.6703C25.1299 21.8873 25.2858 22.1863 25.324 22.5107L25.3333 22.6667V23.484L27.088 24.068C27.4116 24.1749 27.6819 24.4017 27.8435 24.7017C28.0051 25.0017 28.0457 25.3522 27.9569 25.6812C27.8682 26.0102 27.6569 26.2927 27.3663 26.4708C27.0758 26.6489 26.7281 26.7089 26.3947 26.6387L26.2453 26.5987L24.4907 26.012C23.9943 25.8468 23.5575 25.5393 23.2346 25.1278C22.9117 24.7162 22.717 24.2187 22.6747 23.6973L22.6667 23.484V22.6667C22.6667 22.313 22.8071 21.9739 23.0572 21.7239C23.3072 21.4738 23.6464 21.3333 24 21.3333ZM24 4C25.0203 3.99994 26.002 4.38977 26.7443 5.08971C27.4867 5.78966 27.9335 6.74681 27.9933 7.76533L28 8V16C28.0001 17.0203 27.6102 18.002 26.9103 18.7443C26.2103 19.4867 25.2532 19.9335 24.2347 19.9933L24 20H8C6.97972 20.0001 5.99798 19.6102 5.25565 18.9103C4.51332 18.2103 4.06652 17.2532 4.00667 16.2347L4 16V8C3.99994 6.97972 4.38977 5.99798 5.08971 5.25565C5.78966 4.51332 6.74681 4.06652 7.76533 4.00667L8 4H24ZM24 14.6667H8C7.64638 14.6667 7.30724 14.8071 7.05719 15.0572C6.80714 15.3072 6.66667 15.6464 6.66667 16V17.3333H25.3333V16C25.3333 15.6464 25.1929 15.3072 24.9428 15.0572C24.6928 14.8071 24.3536 14.6667 24 14.6667ZM22.6667 8C22.313 8 21.9739 8.14048 21.7239 8.39052C21.4738 8.64057 21.3333 8.97971 21.3333 9.33333C21.3333 9.68696 21.4738 10.0261 21.7239 10.2761C21.9739 10.5262 22.313 10.6667 22.6667 10.6667C23.0203 10.6667 23.3594 10.5262 23.6095 10.2761C23.8595 10.0261 24 9.68696 24 9.33333C24 8.97971 23.8595 8.64057 23.6095 8.39052C23.3594 8.14048 23.0203 8 22.6667 8Z" fill="#008D26"/>
</svg>
