<svg width="32" height="32" viewBox="0 0 32 32" fill="none" xmlns="http://www.w3.org/2000/svg">
<path d="M9.75867 4H18.2413C19.0467 4 19.7107 4 20.252 4.044C20.8133 4.09067 21.3307 4.18933 21.816 4.436C22.5686 4.81949 23.1805 5.43139 23.564 6.184C23.812 6.66933 23.9107 7.18667 23.956 7.748C24 8.28933 24 8.95333 24 9.75867V10H24.5333C25.204 10 25.7573 10 26.2093 10.0307C26.6787 10.0627 27.1133 10.132 27.5307 10.304C28.0161 10.505 28.4572 10.7997 28.8287 11.1713C29.2003 11.5428 29.495 11.9839 29.696 12.4693C29.8693 12.8867 29.936 13.3213 29.9693 13.7893C30 14.2427 30 14.796 30 15.4653V15.5347C30 16.204 30 16.7573 29.9693 17.2093C29.9501 17.6419 29.8651 18.069 29.7173 18.476C28.9484 21.0971 27.5434 23.4875 25.6276 25.4345C23.7117 27.3815 21.3443 28.8248 18.736 29.636L18.484 29.7147C18.0751 29.8658 17.6449 29.9513 17.2093 29.968C16.756 30 16.204 30 15.5347 30H15.4653C14.796 30 14.2427 30 13.7907 29.9693C13.3213 29.9373 12.8867 29.868 12.4693 29.696C11.9839 29.495 11.5428 29.2003 11.1713 28.8287C10.7997 28.4572 10.505 28.0161 10.304 27.5307C10.1307 27.1133 10.064 26.6787 10.0307 26.2107C10 25.7573 10 25.204 10 24.5347V24H9.76C8.95467 24 8.28933 24 7.748 23.956C7.18667 23.9093 6.66933 23.812 6.184 23.564C5.43139 23.1805 4.81949 22.5686 4.436 21.816C4.18933 21.3307 4.08933 20.8133 4.044 20.252C4 19.7107 4 19.0467 4 18.2413V9.75867C4 8.95333 4 8.28933 4.044 7.748C4.09067 7.18667 4.18933 6.66933 4.436 6.184C4.81949 5.43139 5.43139 4.81949 6.184 4.436C6.66933 4.18933 7.18667 4.08933 7.748 4.044C8.28933 4 8.95333 4 9.75867 4ZM12 24.5C12 25.212 12 25.6973 12.0267 26.0733C12.0507 26.4413 12.0973 26.632 12.152 26.7653C12.2525 27.0081 12.3999 27.2286 12.5856 27.4144C12.7714 27.6001 12.9919 27.7475 13.2347 27.848C13.368 27.9027 13.5587 27.9493 13.9267 27.9733C14.3027 28 14.788 28 15.5 28C16.212 28 16.6973 28 17.0733 27.9733C17.4413 27.9493 17.632 27.9027 17.7653 27.848C18.0081 27.7475 18.2286 27.6001 18.4144 27.4144C18.6001 27.2286 18.7475 27.0081 18.848 26.7653C18.9027 26.632 18.948 26.4413 18.9733 26.0733C19 25.6973 19 25.212 19 24.5V24.4653C19 23.796 19 23.2427 19.0307 22.7907C19.0627 22.3213 19.132 21.8867 19.304 21.4693C19.505 20.9839 19.7997 20.5428 20.1713 20.1713C20.5428 19.7997 20.9839 19.505 21.4693 19.304C21.8867 19.1307 22.3213 19.064 22.7893 19.0307C23.2427 19 23.796 19 24.4653 19H24.5C25.212 19 25.6973 19 26.0733 18.9733C26.4413 18.948 26.632 18.9027 26.7653 18.848C27.0081 18.7475 27.2286 18.6001 27.4144 18.4144C27.6001 18.2286 27.7475 18.0081 27.848 17.7653C27.9027 17.632 27.9493 17.4413 27.9733 17.0733C28 16.6973 28 16.212 28 15.5C28 14.788 28 14.3027 27.9733 13.9267C27.9493 13.5587 27.9027 13.368 27.848 13.2347C27.7475 12.9919 27.6001 12.7714 27.4144 12.5856C27.2286 12.3999 27.0081 12.2525 26.7653 12.152C26.632 12.0973 26.4413 12.0507 26.0733 12.0267C25.6973 12 25.212 12 24.5 12H15.8C14.944 12 14.36 12 13.9107 12.0373C13.472 12.0733 13.248 12.1387 13.092 12.2173C12.7153 12.4091 12.4091 12.7153 12.2173 13.092C12.1373 13.248 12.0733 13.472 12.0373 13.9107C12.0013 14.3613 12 14.944 12 15.8V24.5Z" fill="white"/>
</svg>
