<svg width="48" height="48" viewBox="0 0 48 48" fill="none" xmlns="http://www.w3.org/2000/svg">
<path d="M27.0001 37.5C27.0001 37.5 35.0341 38.466 39.6241 33.876C44.2141 29.286 43.5001 19.5 43.5001 19.5C43.5001 19.5 34.1701 18.159 30.0001 22.5C28.6951 23.859 27.0001 25.5 27.0001 30V37.5ZM27.0001 37.5C27.0001 37.5 16.5001 39 9.26407 31.764C2.02807 24.528 4.50007 10.5 4.50007 10.5C4.50007 10.5 15.4561 9.45603 22.6771 16.677C25.5781 19.578 27.0001 24 27.0001 29.118V37.5ZM34.5001 30L27.0001 36M15.0001 24L26.3461 35.916" stroke="white" stroke-width="2" stroke-linecap="round"/>
</svg>
