<svg width="32" height="32" viewBox="0 0 32 32" fill="none" xmlns="http://www.w3.org/2000/svg">
<path fill-rule="evenodd" clip-rule="evenodd" d="M6.78135 5.70667C8.98135 3.36 12.156 2 16.0214 2C22.4107 2 26.7107 5.712 28.0654 10.8667C28.2001 11.3798 28.1255 11.9254 27.8579 12.3835C27.5904 12.8416 27.1518 13.1746 26.6387 13.3093C26.1256 13.4441 25.58 13.3694 25.1219 13.1019C24.6638 12.8343 24.3307 12.3958 24.196 11.8827C23.3067 8.49333 20.6 6 16.0227 6C13.1374 6 11.0627 6.98933 9.70002 8.44267C8.31869 9.91733 7.52002 12.0267 7.52002 14.5V17.5C7.52002 19.9733 8.31735 22.0827 9.69869 23.5573C11.0614 25.0107 13.136 26 16.02 26C18.1214 26 19.7467 25.5133 20.972 24.76C22.1987 24.0027 22.8654 23.0467 23.052 22.0027C23.2827 20.7067 22.9934 19.8973 22.5667 19.3347C22.518 19.2701 22.4664 19.2078 22.412 19.148C22.2249 19.7989 21.9451 20.4194 21.5814 20.9907C19.5627 24.0573 15.756 24.2707 13.3107 23.2947C11.856 22.7147 10.6814 21.184 10.3147 19.5773C10.0866 18.6233 10.165 17.6216 10.5387 16.7147C10.9547 15.7147 11.7174 14.888 12.7547 14.2773C13.8214 13.648 15.324 13.3907 16.7267 13.352C17.2846 13.338 17.8428 13.3558 18.3987 13.4053C18.2787 13.1387 18.1494 12.948 18.0334 12.8387C17.5214 12.3627 16.62 11.996 15.7054 12.0013C14.8427 12.008 14.204 12.3307 13.8254 12.9347C13.6862 13.1574 13.5044 13.3505 13.2906 13.503C13.0768 13.6555 12.835 13.7644 12.5791 13.8235C12.3232 13.8825 12.0581 13.8906 11.7991 13.8472C11.54 13.8038 11.2921 13.7099 11.0694 13.5707C10.8466 13.4315 10.6535 13.2498 10.501 13.0359C10.3485 12.8221 10.2396 12.5803 10.1806 12.3244C10.1215 12.0685 10.1134 11.8034 10.1568 11.5444C10.2002 11.2853 10.2942 11.0374 10.4334 10.8147C11.6974 8.79467 13.776 8.01467 15.6774 8.00133C17.528 7.988 19.4387 8.684 20.7574 9.91067C22.0294 11.0947 22.588 12.916 22.7747 14.5573C23.8894 15.0947 24.948 15.856 25.7534 16.9173C26.9187 18.4507 27.3974 20.416 26.9894 22.704C26.5627 25.0947 25.056 26.9413 23.0694 28.1653C21.1267 29.3627 18.7507 30 16.02 30C12.1547 30 8.98002 28.64 6.78002 26.2933C4.59869 23.9653 3.52002 20.8267 3.52002 17.5V14.5C3.52002 11.1747 4.60002 8.03333 6.78002 5.708L6.78135 5.70667ZM18.7107 17.4707C18.091 17.3757 17.4641 17.3355 16.8374 17.3507C15.6907 17.3827 14.992 17.6013 14.788 17.7227C14.3814 17.9627 14.268 18.1667 14.232 18.2533C14.1813 18.3935 14.1761 18.5461 14.2174 18.6893C14.2654 18.9027 14.3787 19.1333 14.5347 19.3293C14.6063 19.426 14.6938 19.5098 14.7934 19.5773C14.8005 19.5827 14.8005 19.5836 14.7934 19.58C16.1067 20.104 17.6 19.7667 18.2414 18.7907C18.424 18.5147 18.5947 18.0533 18.7107 17.4707Z" fill="white"/>
</svg>
