<svg width="24" height="24" viewBox="0 0 24 24" fill="none" xmlns="http://www.w3.org/2000/svg">
<path d="M18.5 11V18.5M18.5 18.5V22H5.5V18.5M18.5 18.5H22V11C22 9.49999 21 7.74999 19.5 6.49999C18 5.24999 16 4.99999 16 4.99999L12 8.99999M5.5 18.5H2V11C2 9.49999 3 7.74999 4.5 6.49999C6 5.24999 8 4.99999 8 4.99999L12 8.99999M5.5 18.5V11M12 8.99999V13.5" stroke="#453421" stroke-width="2" stroke-linecap="round" stroke-linejoin="round"/>
<path d="M4.5 6.49999C6 5.24999 8 4.99999 8 4.99999L12 8.99999L16 4.99999C16 4.99999 18 5.24999 19.5 6.49999L20.5 4.24999L19.5 1.99999H4.5L3.5 4.24999L4.5 6.49999Z" stroke="#453421" stroke-width="2" stroke-linecap="round" stroke-linejoin="round"/>
</svg>
