<svg width="24" height="24" viewBox="0 0 24 24" fill="none" xmlns="http://www.w3.org/2000/svg">
<path d="M16.0001 6.28C16 6.88171 15.7621 7.45899 15.3381 7.886C14.3621 8.87 13.4151 9.896 12.4021 10.844C12.289 10.947 12.1407 11.0027 11.9877 10.9995C11.8348 10.9964 11.6889 10.9346 11.5801 10.827L8.66212 7.887C8.23771 7.45984 7.99951 6.88214 7.99951 6.28C7.99951 5.67785 8.23771 5.10015 8.66212 4.673C8.87377 4.45978 9.12553 4.29055 9.40288 4.17507C9.68023 4.05959 9.97769 4.00014 10.2781 4.00014C10.5786 4.00014 10.876 4.05959 11.1534 4.17507C11.4307 4.29055 11.6825 4.45978 11.8941 4.673L12.0001 4.78L12.1061 4.673C12.4238 4.35186 12.8299 4.13253 13.2726 4.04292C13.7154 3.95331 14.1748 3.99748 14.5924 4.16981C15.0099 4.34213 15.3668 4.63482 15.6175 5.0106C15.8682 5.38638 16.0014 5.82827 16.0001 6.28Z" stroke="#453421" stroke-width="2" stroke-linejoin="round"/>
<path d="M18 20L21.824 16.176C21.9366 16.0636 21.9999 15.9111 22 15.752V10.5C22 10.1022 21.842 9.72064 21.5607 9.43933C21.2794 9.15803 20.8978 8.99999 20.5 8.99999C20.1022 8.99999 19.7206 9.15803 19.4393 9.43933C19.158 9.72064 19 10.1022 19 10.5V15" stroke="#453421" stroke-width="2" stroke-linecap="round" stroke-linejoin="round"/>
<path d="M18 16L18.858 15.142C18.9033 15.0971 18.9391 15.0437 18.9635 14.9848C18.9879 14.9259 19.0003 14.8627 19 14.799C18.9993 14.7092 18.9739 14.6213 18.9267 14.5449C18.8794 14.4686 18.8121 14.4067 18.732 14.366L18.289 14.145C17.9137 13.9573 17.4889 13.8925 17.0747 13.9596C16.6604 14.0267 16.2778 14.2224 15.981 14.519L15.086 15.414C14.7109 15.789 14.5001 16.2976 14.5 16.828V20M6 20L2.176 16.176C2.06345 16.0636 2.00014 15.9111 2 15.752V10.5C2 10.1022 2.15804 9.72064 2.43934 9.43933C2.72064 9.15803 3.10218 8.99999 3.5 8.99999C3.89782 8.99999 4.27936 9.15803 4.56066 9.43933C4.84196 9.72064 5 10.1022 5 10.5V15" stroke="#453421" stroke-width="2" stroke-linecap="round" stroke-linejoin="round"/>
<path d="M6 16L5.142 15.142C5.0524 15.0501 5.00156 14.9273 5 14.799C5 14.616 5.104 14.449 5.268 14.366L5.711 14.145C6.08631 13.9574 6.51114 13.8925 6.92534 13.9596C7.33955 14.0267 7.72216 14.2224 8.019 14.519L8.914 15.414C9.2891 15.789 9.49989 16.2976 9.5 16.828V20" stroke="#453421" stroke-width="2" stroke-linecap="round" stroke-linejoin="round"/>
</svg>
