<svg width="24" height="24" viewBox="0 0 24 24" fill="none" xmlns="http://www.w3.org/2000/svg">
<path d="M9 22C8.45 22 7.97933 21.8043 7.588 21.413C7.19667 21.0217 7.00067 20.5507 7 20V16H5.4C4.73333 16 4.16667 15.7667 3.7 15.3C3.23333 14.8333 3 14.2667 3 13.6C3 13.1167 3.13333 12.671 3.4 12.263C3.66667 11.855 4.01667 11.5507 4.45 11.35L11 8.45V7.8C10.4 7.58333 9.91667 7.221 9.55 6.713C9.18333 6.205 9 5.634 9 5C9 4.16667 9.29167 3.45833 9.875 2.875C10.4583 2.29167 11.1667 2 12 2C12.6 2 13.15 2.16667 13.65 2.5C14.15 2.83333 14.5167 3.26667 14.75 3.8L14.85 4.225C14.85 4.50833 14.754 4.746 14.562 4.938C14.37 5.13 14.1327 5.22567 13.85 5.225C13.6333 5.225 13.446 5.16667 13.288 5.05C13.13 4.93333 13.009 4.78333 12.925 4.6C12.841 4.41667 12.716 4.271 12.55 4.163C12.384 4.055 12.2007 4.00067 12 4C11.7167 4 11.4793 4.096 11.288 4.288C11.0967 4.48 11.0007 4.71733 11 5C10.9993 5.28267 11.0953 5.52033 11.288 5.713C11.4807 5.90567 11.718 6.00133 12 6C12.282 5.99867 12.5197 6.09467 12.713 6.288C12.9063 6.48133 13.002 6.71867 13 7V8.45L19.55 11.35C19.9833 11.55 20.3333 11.8543 20.6 12.263C20.8667 12.6717 21 13.1173 21 13.6C21 14.2667 20.7667 14.8333 20.3 15.3C19.8333 15.7667 19.2667 16 18.6 16H17V20C17 20.55 16.8043 21.021 16.413 21.413C16.0217 21.805 15.5507 22.0007 15 22H9ZM5.4 14H7.275C7.45833 13.7 7.7 13.4583 8 13.275C8.3 13.0917 8.63333 13 9 13H15C15.3667 13 15.7 13.0917 16 13.275C16.3 13.4583 16.5417 13.7 16.725 14H18.6C18.7167 14 18.8127 13.9583 18.888 13.875C18.9633 13.7917 19.0007 13.6833 19 13.55C19 13.4667 18.9793 13.3957 18.938 13.337C18.8967 13.2783 18.834 13.2327 18.75 13.2L12 10.2L5.25 13.2C5.16667 13.2333 5.10433 13.2793 5.063 13.338C5.02167 13.3967 5.00067 13.4673 5 13.55C5 13.6833 5.03767 13.7917 5.113 13.875C5.18833 13.9583 5.284 14 5.4 14Z" fill="#F2B251"/>
</svg>
