<svg width="20" height="20" viewBox="0 0 20 20" fill="none" xmlns="http://www.w3.org/2000/svg">
<path fill-rule="evenodd" clip-rule="evenodd" d="M8.57184 3.25835C8.57184 2.78502 9.02017 2.29169 9.71684 2.29169C10.4135 2.29169 10.8618 2.78502 10.8618 3.25835C10.8618 3.51752 10.7685 3.74252 10.6168 3.90835C10.5139 4.01788 10.4083 4.12485 10.3002 4.22919L10.2335 4.29585C10.08 4.4445 9.93293 4.59964 9.79268 4.76085C9.57184 5.02085 9.33184 5.36335 9.24434 5.78585C8.7126 5.87272 8.20729 6.07837 7.76601 6.38752L1.85351 10.5475C1.08101 11.0909 0.881842 11.9659 1.16351 12.6992C1.44018 13.4209 2.15851 13.9584 3.08518 13.9584H5.00851C5.00018 14.2609 5.00018 14.6059 5.00018 15C5.00018 16.5717 5.00018 17.3567 5.48934 17.845C5.97517 18.3334 6.76184 18.3334 8.33351 18.3334H11.6668C13.2377 18.3334 14.0235 18.3334 14.5118 17.845C15.0002 17.3567 15.0002 16.5717 15.0002 15C15.0002 14.6059 15.0002 14.2609 14.9918 13.9584H16.9143C17.8518 13.9584 18.5727 13.4109 18.8443 12.6809C19.1193 11.9384 18.9052 11.0575 18.1135 10.5242L11.9193 6.34919C11.5133 6.07592 11.0555 5.88874 10.5743 5.79919C10.616 5.73196 10.673 5.65585 10.7452 5.57085C10.8502 5.44669 10.9735 5.32252 11.1118 5.18419L11.1743 5.12419C11.291 5.00752 11.4202 4.88085 11.5368 4.75335C11.906 4.35335 12.1118 3.82419 12.1118 3.25752C12.1118 1.97252 10.9752 1.04169 9.71684 1.04169C8.45851 1.04169 7.32184 1.97252 7.32184 3.25835C7.32184 3.42411 7.38769 3.58309 7.5049 3.7003C7.62211 3.81751 7.78108 3.88335 7.94684 3.88335C8.1126 3.88335 8.27157 3.81751 8.38878 3.7003C8.50599 3.58309 8.57184 3.42411 8.57184 3.25835ZM14.8393 12.7084H16.9143C17.3385 12.7084 17.586 12.4775 17.6727 12.2459C17.7535 12.0259 17.7118 11.7609 17.4143 11.5609L11.221 7.38585C10.8127 7.11498 10.3317 6.97461 9.84184 6.98335C9.35706 6.98628 8.88437 7.13494 8.48518 7.41002L2.57268 11.5692C2.28434 11.7717 2.24684 12.0342 2.33101 12.2517C2.41851 12.4809 2.66684 12.7084 3.08518 12.7084H5.16018C5.23268 12.4859 5.33684 12.3059 5.48851 12.155C5.97518 11.6667 6.76184 11.6667 8.33351 11.6667H11.6668C13.2377 11.6667 14.0235 11.6667 14.5118 12.155C14.6627 12.3059 14.7677 12.4859 14.8393 12.7084Z" fill="#453421"/>
</svg>
