<svg width="20" height="20" viewBox="0 0 20 20" fill="none" xmlns="http://www.w3.org/2000/svg">
<g clip-path="url(#clip0_5_356)">
<path d="M10.4378 4.25C11.6008 4.25 12.5722 3.34367 12.6878 2.21094C12.6984 2.10547 12.5823 2 12.4769 2C12.4198 2.00006 12.3633 2.01079 12.3102 2.03164C12.3032 2.03445 11.5684 2.31641 10.4378 2.31641C9.30719 2.31641 8.57102 2.03516 8.56539 2.03164C8.50548 2.01079 8.4425 2.0001 8.37906 2H8.37695C8.35067 2.00139 8.32492 2.00796 8.30118 2.01932C8.27744 2.03068 8.25618 2.04662 8.2386 2.06621C8.22103 2.08581 8.2075 2.10868 8.19879 2.13351C8.19007 2.15835 8.18634 2.18466 8.18781 2.21094C8.30559 3.34156 9.27766 4.25 10.4378 4.25Z" fill="#34A853"/>
<path d="M18.4986 4.03559L13.9533 2.44442C13.9338 2.43763 13.9131 2.4352 13.8926 2.4373C13.8721 2.43941 13.8523 2.44599 13.8346 2.45659C13.8169 2.46719 13.8018 2.48154 13.7903 2.49864C13.7788 2.51573 13.7712 2.53515 13.768 2.55551C13.6365 3.34339 13.2298 4.05908 12.6202 4.57532C12.0107 5.09155 11.2378 5.37486 10.439 5.37486C9.64026 5.37486 8.86737 5.09155 8.25783 4.57532C7.64829 4.05908 7.2416 3.34339 7.11009 2.55551C7.107 2.53481 7.09934 2.51506 7.08765 2.49769C7.07596 2.48033 7.06054 2.4658 7.04251 2.45515C7.02449 2.44451 7.00432 2.43802 6.98347 2.43616C6.96262 2.43431 6.94162 2.43713 6.922 2.44442L2.37665 4.03559C2.24943 4.08013 2.14243 4.16887 2.07513 4.28566C2.00783 4.40245 1.98471 4.53952 2.00997 4.67192L2.59462 7.76567C2.61712 7.88359 2.67675 7.99122 2.7648 8.07282C2.85286 8.15442 2.9647 8.20571 3.08399 8.21919L4.80243 8.41325C4.87258 8.42116 4.93719 8.45516 4.98343 8.5085C5.02967 8.56184 5.05416 8.63062 5.05204 8.70118L4.79434 17.1703C4.79093 17.2795 4.81936 17.3873 4.87617 17.4805C4.93298 17.5738 5.01571 17.6485 5.11427 17.6956C5.19619 17.7326 5.28524 17.7512 5.37513 17.7501H15.5001C15.59 17.7512 15.6791 17.7326 15.761 17.6956C15.8595 17.6485 15.9423 17.5738 15.9991 17.4805C16.0559 17.3873 16.0843 17.2795 16.0809 17.1703L15.8232 8.70118C15.8211 8.63062 15.8456 8.56184 15.8918 8.5085C15.9381 8.45516 16.0027 8.42116 16.0728 8.41325L17.7913 8.21919C17.9106 8.20571 18.0224 8.15442 18.1105 8.07282C18.1985 7.99122 18.2581 7.88359 18.2806 7.76567L18.8653 4.67192C18.8906 4.53952 18.8674 4.40245 18.8001 4.28566C18.7328 4.16887 18.6258 4.08013 18.4986 4.03559Z" fill="#34A853"/>
<path d="M16.5215 14.7285C16.5215 14.0592 17.2815 13.7037 17.791 14.0791L17.8896 14.1641L20.1455 16.4365C20.4548 16.7484 20.4548 17.2516 20.1455 17.5635L17.8896 19.8359C17.3865 20.3425 16.5215 19.9855 16.5215 19.2715V18.2998H8.47852V19.2715C8.47849 19.9856 7.61349 20.3417 7.11035 19.835L4.85547 17.5635C4.54575 17.2515 4.54578 16.7485 4.85547 16.4365L7.11035 14.1641C7.6135 13.6575 8.47852 14.0145 8.47852 14.7285V15.7002H16.5215V14.7285Z" fill="#003F11" stroke="white" stroke-linejoin="round"/>
</g>
<defs>
<clipPath id="clip0_5_356">
<rect width="20" height="20" fill="white"/>
</clipPath>
</defs>
</svg>
