<svg width="24" height="24" viewBox="0 0 24 24" fill="none" xmlns="http://www.w3.org/2000/svg">
<path d="M12 17L10 19L12 21" stroke="#453421" stroke-width="2" stroke-linecap="round" stroke-linejoin="round"/>
<path d="M9.99978 19H18.9998C19.3184 18.9836 19.6284 18.8912 19.9041 18.7305C20.1797 18.5698 20.4128 18.3455 20.5841 18.0764C20.7554 17.8072 20.8598 17.501 20.8886 17.1833C20.9174 16.8656 20.8698 16.5456 20.7498 16.25L20.1998 15.25M8.53578 11L7.80378 8.26799L5.07178 8.99999" stroke="#453421" stroke-width="2" stroke-linecap="round" stroke-linejoin="round"/>
<path d="M7.80399 8.26799L3.30399 16.062C3.15903 16.3461 3.0841 16.6607 3.08547 16.9796C3.08683 17.2985 3.16444 17.6125 3.31182 17.8953C3.4592 18.1781 3.67208 18.4216 3.9327 18.6054C4.19331 18.7892 4.49411 18.9081 4.80999 18.952L5.95099 18.976M15.464 11L18.196 11.732L18.928 8.99999" stroke="#453421" stroke-width="2" stroke-linecap="round" stroke-linejoin="round"/>
<path d="M18.1961 11.732L13.6961 3.938C13.5225 3.67044 13.2875 3.44827 13.0105 3.29004C12.7336 3.13181 12.4229 3.0421 12.1042 3.0284C11.7856 3.0147 11.4683 3.0774 11.1788 3.21128C10.8893 3.34516 10.636 3.54633 10.4401 3.798L9.84912 4.774" stroke="#453421" stroke-width="2" stroke-linecap="round" stroke-linejoin="round"/>
</svg>
