<svg width="24" height="24" viewBox="0 0 24 24" fill="none" xmlns="http://www.w3.org/2000/svg">
<path d="M11.8999 16.21C12.1299 16.21 12.3499 16.21 12.5799 16.16C13.6299 15.96 14.5099 15.17 14.8499 14.16C15.0999 13.45 15.0499 12.67 14.7399 11.99C14.7052 11.9144 14.6454 11.8532 14.5706 11.8168C14.4959 11.7803 14.4108 11.7709 14.3299 11.79C13.8799 11.9 13.5699 12.13 13.2099 12.39C12.6199 12.82 11.8899 13.36 10.5199 13.36C9.90991 13.36 9.42991 13.25 9.02991 13.09C9.0152 13.4854 9.07857 13.8797 9.21639 14.2506C9.35422 14.6214 9.56379 14.9614 9.83313 15.2512C10.1025 15.541 10.4263 15.7748 10.7861 15.9393C11.1459 16.1038 11.5346 16.1958 11.9299 16.21H11.8999Z" fill="#F2B251"/>
<path d="M5 22H19C20.1 22 21 21.1 21 20V4C21 2.9 20.1 2 19 2H5C3.9 2 3 2.9 3 4V20C3 21.1 3.9 22 5 22ZM18 4C18.55 4 19 4.45 19 5C19 5.55 18.55 6 18 6C17.45 6 17 5.55 17 5C17 4.45 17.45 4 18 4ZM15 4C15.55 4 16 4.45 16 5C16 5.55 15.55 6 15 6C14.45 6 14 5.55 14 5C14 4.45 14.45 4 15 4ZM12 8C14.76 8 17 10.24 17 13C17 15.76 14.76 18 12 18C9.24 18 7 15.76 7 13C7 10.24 9.24 8 12 8Z" fill="#F2B251"/>
</svg>
