<svg width="20" height="20" viewBox="0 0 20 20" fill="none" xmlns="http://www.w3.org/2000/svg">
<path d="M13.5607 16.2083C14.0868 16.4133 14.5723 16.5705 15.0173 16.68L15.0232 16.6808C15.8182 16.8767 16.449 16.9158 16.8982 16.8358C17.0237 16.813 17.1315 16.7828 17.2215 16.745C17.4407 16.6533 17.5615 16.5217 17.6248 16.3867C17.6982 16.2308 17.7323 16.005 17.6898 15.6975C17.6566 15.4694 17.5979 15.2458 17.5148 15.0308C17.4017 14.7311 17.2658 14.4405 17.1082 14.1617L17.0998 14.145L17.0232 14.0117C16.7667 13.5761 16.4822 13.1578 16.1715 12.7592L16.1682 12.7542C15.004 11.245 13.2598 9.57999 11.164 8.09165C8.9415 6.51332 6.7915 5.46415 5.12733 5.02415L4.98566 4.98749L4.97733 4.98582C4.18233 4.78999 3.55066 4.75082 3.10233 4.83082C2.95328 4.85442 2.80896 4.90168 2.67483 4.97082C2.54337 5.03784 2.43786 5.14657 2.37483 5.27999C2.28066 5.47999 2.2565 5.78665 2.35483 6.20582C2.38483 6.33637 2.42844 6.47971 2.48566 6.63582C2.56505 6.84934 2.65687 7.05803 2.76066 7.26082L2.78566 7.30832L2.874 7.47415C3.11816 7.91915 3.43733 8.40082 3.82816 8.90749L3.83066 8.91082C4.29242 9.50277 4.78855 10.0671 5.3165 10.6008L5.6765 10.9625L5.6965 10.7058C5.77983 9.63415 5.8215 9.09832 6.18566 8.90749C6.549 8.71582 6.994 8.99665 7.88233 9.55749L8.11233 9.70249C8.36483 9.86165 8.49066 9.94165 8.6365 9.96082C8.7815 9.98165 8.92983 9.93915 9.22566 9.85499L9.49566 9.77832C10.5382 9.48249 11.0598 9.33415 11.339 9.61332C11.6182 9.89165 11.4698 10.4133 11.1732 11.4558L11.0965 11.7258C11.0132 12.0217 10.9707 12.17 10.9907 12.3158C11.0107 12.4617 11.0907 12.5875 11.249 12.84L11.394 13.07C11.9548 13.9583 12.2357 14.4033 12.044 14.7658C11.8523 15.1283 11.3173 15.1717 10.2457 15.255L9.96816 15.2767C9.664 15.3008 9.5115 15.3125 9.37816 15.3825C9.24483 15.4525 9.1465 15.5725 8.949 15.8125L8.769 16.0317C8.07233 16.8767 7.724 17.3 7.32733 17.245C6.93066 17.1908 6.74733 16.695 6.3815 15.705L6.2865 15.4483C6.18233 15.1667 6.13066 15.0258 6.02816 14.9233C5.92566 14.8217 5.78483 14.7692 5.50316 14.665L5.24733 14.5708C4.25566 14.2042 3.76066 14.0208 3.7065 13.6242C3.65233 13.2275 4.07483 12.8792 4.92066 12.1833L5.0365 12.0875C4.83144 11.8859 4.6281 11.6825 4.4265 11.4775C3.77422 10.8228 3.17014 10.1218 2.619 9.37999C2.41744 9.10422 2.22593 8.82126 2.04483 8.53165C1.91435 8.31957 1.79122 8.10305 1.67566 7.88249L1.59483 7.72249C1.4887 7.50882 1.39412 7.28962 1.3115 7.06582C1.24272 6.87942 1.18512 6.68908 1.139 6.49582C0.99233 5.87415 0.99733 5.27332 1.24316 4.74915C1.43784 4.33509 1.77422 4.00433 2.1915 3.81665C2.42483 3.70582 2.6815 3.63249 2.94816 3.58999C3.66483 3.47665 4.52316 3.57332 5.44566 3.81665C7.29733 4.30582 9.58483 5.43749 11.8873 7.07332C14.1915 8.70999 16.1207 10.5733 17.3732 12.2792C17.7882 12.8433 18.1365 13.4 18.399 13.9342C18.5253 14.1925 18.6366 14.458 18.7323 14.7292C18.9873 15.4808 19.0657 16.2583 18.7557 16.9183C18.529 17.4017 18.1507 17.715 17.6973 17.9008C17.5134 17.9753 17.3201 18.0308 17.1173 18.0675C16.9107 18.104 16.7014 18.1235 16.4915 18.1258C16.3698 18.1275 16.2448 18.1247 16.1165 18.1175C15.8529 18.102 15.5905 18.0708 15.3307 18.0242C14.644 17.9042 13.8915 17.6808 13.1048 17.3733C13.0275 17.3441 12.9568 17.2998 12.8967 17.243C12.8366 17.1863 12.7884 17.1182 12.7548 17.0426C12.7212 16.9671 12.7029 16.8857 12.7011 16.803C12.6992 16.7204 12.7137 16.6382 12.7438 16.5612C12.7739 16.4842 12.8189 16.414 12.8764 16.3545C12.9338 16.2951 13.0024 16.2476 13.0783 16.2148C13.1542 16.1821 13.2359 16.1647 13.3185 16.1638C13.4012 16.1628 13.4832 16.1782 13.5598 16.2092" fill="#C99547"/>
<path fill-rule="evenodd" clip-rule="evenodd" d="M16.3876 2.00749C16.4524 2.05797 16.5066 2.12073 16.5471 2.19216C16.5875 2.26359 16.6136 2.3423 16.6236 2.42379C16.6337 2.50528 16.6276 2.58795 16.6057 2.66709C16.5838 2.74622 16.5465 2.82027 16.496 2.88499L16.4035 3.00332C16.5052 3.54876 16.7561 4.0553 17.1285 4.46665C17.234 4.59002 17.2874 4.74962 17.2773 4.91165C17.2673 5.07369 17.1946 5.22545 17.0746 5.33482C16.9546 5.44419 16.7968 5.50258 16.6345 5.49764C16.4722 5.49269 16.3182 5.42479 16.2051 5.30832C15.8318 4.89706 15.5428 4.41661 15.3543 3.89415C15.1731 4.0024 14.9813 4.09176 14.7818 4.16082C15.0535 4.65332 15.2251 5.19999 15.286 5.76665C15.3037 5.93153 15.2551 6.09668 15.151 6.22576C15.0469 6.35485 14.8958 6.4373 14.731 6.45499C14.5661 6.47267 14.4009 6.42413 14.2719 6.32004C14.1428 6.21596 14.0603 6.06486 14.0426 5.89999C13.9857 5.3515 13.7787 4.82932 13.4443 4.39082L13.3126 4.38582C13.1487 4.3779 12.9944 4.30581 12.8832 4.1851C12.7719 4.06439 12.7126 3.90477 12.7181 3.74071C12.7236 3.57665 12.7934 3.42134 12.9124 3.30831C13.0315 3.19528 13.1902 3.13362 13.3543 3.13665L13.6943 3.14832C14.1326 3.06165 14.3585 2.99832 14.5535 2.90665C14.7493 2.81332 14.9451 2.67749 15.296 2.38999L15.511 2.11499C15.6129 1.98446 15.7625 1.89973 15.9269 1.87942C16.0913 1.8591 16.257 1.9057 16.3876 2.00749Z" fill="#C99547"/>
</svg>
