<svg width="24" height="24" viewBox="0 0 24 24" fill="none" xmlns="http://www.w3.org/2000/svg">
<g clip-path="url(#clip0_12_659)">
<path d="M4.5 6V0.75H9V5.96L4.5 6Z" stroke="#C99547" stroke-width="1.5" stroke-linecap="round" stroke-linejoin="round"/>
<path d="M9.75 12.75H1.55C1.33783 12.75 1.13434 12.6657 0.984315 12.5157C0.834285 12.3657 0.75 12.1622 0.75 11.95V1.55C0.75 1.33783 0.834285 1.13434 0.984315 0.984315C1.13434 0.834285 1.33783 0.75 1.55 0.75H12M15 3.75C15 2.95435 15.3161 2.19129 15.8787 1.62868C16.4413 1.06607 17.2044 0.75 18 0.75C18.7956 0.75 19.5587 1.06607 20.1213 1.62868C20.6839 2.19129 21 2.95435 21 3.75H12.5M20.46 6.51C20.1821 6.9037 19.8135 7.22467 19.3853 7.44573C18.9571 7.6668 18.4819 7.78145 18 7.78C17.5172 7.78033 17.0415 7.66414 16.6132 7.4413C16.185 7.21846 15.8168 6.89555 15.54 6.5M23.25 14.5C23.25 13.8106 23.1142 13.1279 22.8504 12.4909C22.5865 11.854 22.1998 11.2752 21.7123 10.7877C21.2248 10.3002 20.646 9.91347 20.0091 9.64963C19.3721 9.3858 18.6894 9.25 18 9.25C17.3106 9.25 16.6279 9.3858 15.9909 9.64963C15.354 9.91347 14.7752 10.3002 14.2877 10.7877C13.8002 11.2752 13.4135 11.854 13.1496 12.4909C12.8858 13.1279 12.75 13.8106 12.75 14.5V15.75H15L15.75 23.25H20.25L21 15.75H23.25V14.5Z" stroke="#C99547" stroke-width="1.5" stroke-linecap="round" stroke-linejoin="round"/>
</g>
<defs>
<clipPath id="clip0_12_659">
<rect width="24" height="24" fill="white"/>
</clipPath>
</defs>
</svg>
