<svg width="32" height="32" viewBox="0 0 32 32" fill="none" xmlns="http://www.w3.org/2000/svg">
<path d="M26.6665 5.3335H5.33317C3.8665 5.3335 2.67984 6.5335 2.67984 8.00016L2.6665 24.0002C2.6665 25.4668 3.8665 26.6668 5.33317 26.6668H26.6665C28.1332 26.6668 29.3332 25.4668 29.3332 24.0002V8.00016C29.3332 6.5335 28.1332 5.3335 26.6665 5.3335ZM26.1332 11.0002L16.7065 16.8935C16.2798 17.1602 15.7198 17.1602 15.2932 16.8935L5.8665 11.0002C5.73281 10.9251 5.61573 10.8237 5.52236 10.7021C5.42898 10.5805 5.36125 10.4412 5.32327 10.2927C5.28529 10.1441 5.27784 9.98941 5.30138 9.8379C5.32492 9.6864 5.37895 9.54125 5.46021 9.41123C5.54147 9.28121 5.64827 9.16904 5.77414 9.08149C5.90001 8.99394 6.04233 8.93284 6.1925 8.90189C6.34266 8.87094 6.49755 8.87078 6.64778 8.90143C6.79801 8.93207 6.94045 8.99287 7.0665 9.08016L15.9998 14.6668L24.9332 9.08016C25.0592 8.99287 25.2017 8.93207 25.3519 8.90143C25.5021 8.87078 25.657 8.87094 25.8072 8.90189C25.9573 8.93284 26.0997 8.99394 26.2255 9.08149C26.3514 9.16904 26.4582 9.28121 26.5395 9.41123C26.6207 9.54125 26.6748 9.6864 26.6983 9.8379C26.7218 9.98941 26.7144 10.1441 26.6764 10.2927C26.6384 10.4412 26.5707 10.5805 26.4773 10.7021C26.3839 10.8237 26.2669 10.9251 26.1332 11.0002Z" fill="white"/>
</svg>
