<svg width="16" height="16" viewBox="0 0 16 16" fill="none" xmlns="http://www.w3.org/2000/svg">
<path d="M7.33333 3.60004C7.33333 3.35251 7.43167 3.11511 7.6067 2.94007C7.78173 2.76504 8.01913 2.66671 8.26667 2.66671H12.4C12.6475 2.66671 12.8849 2.76504 13.06 2.94007C13.235 3.11511 13.3333 3.35251 13.3333 3.60004V12.4C13.3333 12.6476 13.235 12.885 13.06 13.06C12.8849 13.235 12.6475 13.3334 12.4 13.3334H8.26667C8.01913 13.3334 7.78173 13.235 7.6067 13.06C7.43167 12.885 7.33333 12.6476 7.33333 12.4V10.6667C7.33333 10.4899 7.2631 10.3203 7.13807 10.1953C7.01305 10.0703 6.84348 10 6.66667 10C6.48986 10 6.32029 10.0703 6.19526 10.1953C6.07024 10.3203 6 10.4899 6 10.6667V12.4C6 13.0012 6.23881 13.5777 6.66389 14.0028C7.08897 14.4279 7.66551 14.6667 8.26667 14.6667H12.4C13.0012 14.6667 13.5777 14.4279 14.0028 14.0028C14.4279 13.5777 14.6667 13.0012 14.6667 12.4V3.60004C14.6667 2.99888 14.4279 2.42235 14.0028 1.99727C13.5777 1.57218 13.0012 1.33337 12.4 1.33337H8.26667C7.969 1.33337 7.67426 1.392 7.39925 1.50591C7.12425 1.61982 6.87437 1.78679 6.66389 1.99727C6.45341 2.20774 6.28645 2.45762 6.17254 2.73263C6.05863 3.00763 6 3.30238 6 3.60004V5.33337C6 5.51019 6.07024 5.67975 6.19526 5.80478C6.32029 5.9298 6.48986 6.00004 6.66667 6.00004C6.84348 6.00004 7.01305 5.9298 7.13807 5.80478C7.2631 5.67975 7.33333 5.51019 7.33333 5.33337V3.60004Z" fill="#C99547"/>
<path d="M8.86216 5.52869C8.98718 5.40371 9.15672 5.3335 9.3335 5.3335C9.51027 5.3335 9.67981 5.40371 9.80483 5.52869L11.8048 7.52869C11.9298 7.65371 12 7.82324 12 8.00002C12 8.1768 11.9298 8.34634 11.8048 8.47135L9.80483 10.4714C9.67909 10.5928 9.51069 10.66 9.3359 10.6585C9.1611 10.657 8.99389 10.5868 8.87028 10.4632C8.74668 10.3396 8.67657 10.1724 8.67505 9.99762C8.67353 9.82282 8.74072 9.65442 8.86216 9.52869L9.72416 8.66669H2.00016C1.82335 8.66669 1.65378 8.59645 1.52876 8.47142C1.40373 8.3464 1.3335 8.17683 1.3335 8.00002C1.3335 7.82321 1.40373 7.65364 1.52876 7.52862C1.65378 7.40359 1.82335 7.33335 2.00016 7.33335H9.72416L8.86216 6.47135C8.73718 6.34634 8.66697 6.1768 8.66697 6.00002C8.66697 5.82324 8.73718 5.65371 8.86216 5.52869Z" fill="#C99547"/>
</svg>
