<svg width="12" height="12" viewBox="0 0 12 12" fill="none" xmlns="http://www.w3.org/2000/svg">
<g clip-path="url(#clip0_56_6020)">
<path d="M5.625 6.75C5.7135 6.751 5.8 6.759 5.8845 6.774L4.82925 7.83C4.61857 8.04094 4.50024 8.32687 4.50024 8.625C4.50024 8.92313 4.61857 9.20906 4.82925 9.42L5.57625 10.167C5.04375 10.3838 4.41375 10.5 3.75 10.5C2.86875 10.5 2.0475 10.296 1.43325 9.9225C0.81825 9.5475 0.375 8.97375 0.375 8.25C0.375 7.85218 0.533035 7.47064 0.81434 7.18934C1.09564 6.90804 1.47718 6.75 1.875 6.75H5.625ZM9.86025 6.8595C9.93057 6.7892 10.0259 6.74971 10.1254 6.74971C10.2248 6.74971 10.3202 6.7892 10.3905 6.8595L11.8905 8.3595C11.9608 8.42982 12.0003 8.52519 12.0003 8.62463C12.0003 8.72406 11.9608 8.81943 11.8905 8.88975L10.3905 10.3898C10.3559 10.4256 10.3145 10.4541 10.2688 10.4738C10.223 10.4934 10.1738 10.5038 10.124 10.5042C10.0742 10.5047 10.0249 10.4952 9.97877 10.4763C9.93268 10.4575 9.89081 10.4296 9.8556 10.3944C9.82039 10.3592 9.79255 10.3173 9.77369 10.2712C9.75484 10.2251 9.74535 10.1758 9.74578 10.126C9.74621 10.0762 9.75656 10.027 9.77621 9.98122C9.79587 9.93547 9.82443 9.89409 9.86025 9.8595L10.7198 9H6.53025L7.3905 9.8595C7.42532 9.89437 7.45293 9.93575 7.47175 9.98128C7.49057 10.0268 7.50024 10.0756 7.50021 10.1249C7.50017 10.1742 7.49043 10.2229 7.47155 10.2685C7.45266 10.314 7.42499 10.3553 7.39013 10.3901C7.35526 10.4249 7.31388 10.4526 7.26834 10.4714C7.22281 10.4902 7.17401 10.4999 7.12474 10.4998C7.07546 10.4998 7.02668 10.4901 6.98117 10.4712C6.93566 10.4523 6.89432 10.4246 6.8595 10.3898L5.3595 8.88975C5.2892 8.81943 5.24971 8.72406 5.24971 8.62463C5.24971 8.52519 5.2892 8.42982 5.3595 8.3595L6.8595 6.8595C6.92992 6.78909 7.02542 6.74953 7.125 6.74953C7.22458 6.74953 7.32009 6.78909 7.3905 6.8595C7.46092 6.92992 7.50047 7.02542 7.50047 7.125C7.50047 7.22458 7.46092 7.32009 7.3905 7.3905L6.53025 8.25H10.7198L9.86025 7.3905C9.82533 7.35567 9.79762 7.31428 9.77872 7.26873C9.75981 7.22317 9.75008 7.17433 9.75008 7.125C9.75008 7.07568 9.75981 7.02683 9.77872 6.98128C9.79762 6.93572 9.82533 6.89433 9.86025 6.8595ZM3.75 1.875C4.29701 1.875 4.82161 2.0923 5.20841 2.47909C5.5952 2.86589 5.8125 3.39049 5.8125 3.9375C5.8125 4.48451 5.5952 5.00911 5.20841 5.39591C4.82161 5.7827 4.29701 6 3.75 6C3.20299 6 2.67839 5.7827 2.29159 5.39591C1.9048 5.00911 1.6875 4.48451 1.6875 3.9375C1.6875 3.39049 1.9048 2.86589 2.29159 2.47909C2.67839 2.0923 3.20299 1.875 3.75 1.875ZM8.6265 2.62275C8.85125 2.61801 9.07468 2.65819 9.2837 2.74092C9.49272 2.82366 9.68312 2.94728 9.84374 3.10455C10.0044 3.26183 10.132 3.44958 10.2191 3.65681C10.3062 3.86404 10.3511 4.08658 10.3511 4.31138C10.3511 4.53617 10.3062 4.75871 10.2191 4.96594C10.132 5.17317 10.0044 5.36092 9.84374 5.5182C9.68312 5.67547 9.49272 5.79909 9.2837 5.88183C9.07468 5.96456 8.85125 6.00474 8.6265 6C8.18481 5.99069 7.76435 5.80869 7.45527 5.49303C7.14619 5.17736 6.97309 4.75316 6.97309 4.31138C6.97309 3.86959 7.14619 3.44539 7.45527 3.12972C7.76435 2.81406 8.18481 2.63206 8.6265 2.62275Z" fill="white"/>
</g>
<defs>
<clipPath id="clip0_56_6020">
<rect width="12" height="12" fill="white"/>
</clipPath>
</defs>
</svg>
