<svg width="14" height="14" viewBox="0 0 14 14" fill="none" xmlns="http://www.w3.org/2000/svg">
<path d="M5.25 6.41663C5.25 6.88075 5.43437 7.32587 5.76256 7.65406C6.09075 7.98225 6.53587 8.16663 7 8.16663C7.46413 8.16663 7.90925 7.98225 8.23744 7.65406C8.56563 7.32587 8.75 6.88075 8.75 6.41663C8.75 5.9525 8.56563 5.50738 8.23744 5.17919C7.90925 4.851 7.46413 4.66663 7 4.66663C6.53587 4.66663 6.09075 4.851 5.76256 5.17919C5.43437 5.50738 5.25 5.9525 5.25 6.41663Z" stroke="#A5A5A5" stroke-linecap="round" stroke-linejoin="round"/>
<path d="M10.3001 9.71653L7.825 12.1916C7.60624 12.4102 7.30967 12.5329 7.00046 12.5329C6.69124 12.5329 6.39467 12.4102 6.17591 12.1916L3.70025 9.71653C3.04763 9.06388 2.60319 8.23236 2.42315 7.32712C2.2431 6.42188 2.33553 5.48358 2.68875 4.63088C3.04197 3.77817 3.6401 3.04935 4.40753 2.53658C5.17495 2.02381 6.0772 1.75012 7.00016 1.75012C7.92313 1.75012 8.82538 2.02381 9.5928 2.53658C10.3602 3.04935 10.9584 3.77817 11.3116 4.63088C11.6648 5.48358 11.7572 6.42188 11.5772 7.32712C11.3971 8.23236 10.9527 9.06388 10.3001 9.71653Z" stroke="#A5A5A5" stroke-linecap="round" stroke-linejoin="round"/>
</svg>
