<svg width="93" height="32" viewBox="0 0 93 32" fill="none" xmlns="http://www.w3.org/2000/svg">
<path d="M68.6899 0.488213H84.631V1.46464H79.9373V30.5798H81.5314C84.0406 30.5798 86.0332 29.8105 87.5093 28.2718C89.0148 26.7332 90.5351 24.3662 92.0702 21.1706H93.0001L92.1587 31.5562H68.6899V30.5798H71.3025V1.46464H68.6899V0.488213Z" fill="#453421"/>
<path d="M57.7063 17.8419V14.5576C57.7063 9.14286 57.4406 5.72538 56.9093 4.30513C56.3189 2.67776 55.4775 1.67175 54.3853 1.2871C53.7653 1.05039 53.0126 0.932038 52.1269 0.932038C51.2413 0.932038 50.4738 1.05039 49.8243 1.2871C49.2044 1.52381 48.6878 1.93805 48.2745 2.52982C47.8612 3.12159 47.5217 3.74295 47.2561 4.3939C47.0199 5.04484 46.828 5.96209 46.6804 7.14563C46.5033 8.86177 46.4147 11.3916 46.4147 14.7351V17.9307C46.4147 21.5405 46.5476 24.1147 46.8132 25.6533C47.1084 27.1623 47.4627 28.2423 47.876 28.8932C48.7911 30.343 50.2081 31.068 52.1269 31.068C54.4591 31.068 55.9646 30.0915 56.6436 28.1387C57.3521 26.1563 57.7063 22.724 57.7063 17.8419ZM52.0384 32C47.1085 32 43.4184 30.6685 40.9682 28.0055C38.5475 25.313 37.3372 21.4369 37.3372 16.3773C37.3372 11.288 38.6361 7.29357 41.2339 4.3939C43.8612 1.46463 47.566 0 52.3483 0C57.1307 0 60.7322 1.39066 63.1528 4.17198C65.6031 6.92372 66.8281 10.8442 66.8281 15.9334C66.8281 21.0227 65.5883 24.9727 63.1086 27.7836C60.6584 30.5945 56.9683 32 52.0384 32Z" fill="#453421"/>
<path d="M21.541 0.488213H35.9323V1.33149H33.4969V20.5049C33.4969 24.4993 32.5965 27.4138 30.7957 29.2483C28.995 31.0532 26.2938 31.9556 22.6923 31.9556C20.3012 31.9556 18.3971 31.497 16.9801 30.5798C15.5927 29.6625 14.8989 28.3754 14.8989 26.7184C14.8989 25.4461 15.2532 24.4549 15.9617 23.7448C16.6702 23.0051 17.6296 22.6352 18.8399 22.6352C20.0798 22.6352 20.9949 22.9459 21.5853 23.5673C22.2053 24.1886 22.5152 24.9431 22.5152 25.8308C22.5152 26.6889 22.3529 27.5617 22.0281 28.4494H20.3012C20.0355 28.8932 19.9027 29.3222 19.9027 29.7365C19.9027 30.1211 20.0945 30.4614 20.4783 30.7573C20.8916 31.0236 21.423 31.1567 22.0724 31.1567C23.2532 31.1567 24.006 30.6981 24.3307 29.7809C24.685 28.834 24.8621 26.8072 24.8621 23.7004V1.33149H21.541V0.488213Z" fill="#453421"/>
<path d="M0 0.488213H13.5056V1.33149H11.0702V30.7129H13.5056V31.5562H0V30.7129H2.43544V1.33149H0V0.488213Z" fill="#453421"/>
</svg>
